<?xml version="1.0" encoding="UTF-8"?>
<svg width="68px" height="54px" viewBox="0 0 68 54" version="1.1" xmlns="http://www.w3.org/2000/svg" xmlns:xlink="http://www.w3.org/1999/xlink">
    <!-- Generator: Sketch 48.2 (47327) - http://www.bohemiancoding.com/sketch -->
    <title>logo</title>
    <desc>Created with Sketch.</desc>
    <defs></defs>
    <g id="Page-1" stroke="none" stroke-width="1" fill="none" fill-rule="evenodd">
        <g id="logo" fill="#fff" fill-rule="nonzero">
            <path d="M63.98,7.593 L52.057,7.593 L51.358,2.228 C51.358,1.181 50.51,0.333 49.463,0.333 L30.529,0.333 C29.484,0.333 28.636,1.181 28.636,2.228 L27.936,7.593 L4.02,7.593 C1.929,7.593 0.233,9.288 0.233,11.378 L0.233,12.403 L67.7670004,12.403 L67.767,11.378 C67.768,9.288 66.07,7.593 63.98,7.593 Z" id="Shape"></path>
            <path d="M0.233,49.88 C0.233,51.972 1.928,53.667 4.02,53.667 L63.98,53.667 C66.07,53.667 67.767,51.972 67.767,49.88 L67.767,49.325 L0.233,49.325 L0.233,49.88 Z" id="Shape"></path>
            <path d="M0.233,48.38 L67.767,48.38 L67.767,13.351 L0.233,13.351 L0.233,48.38 Z M34,16.114 C42.018,16.114 48.516,22.612 48.516,30.628 C48.516,38.648 42.018,45.146 34,45.146 C25.983,45.146 19.484,38.648 19.484,30.628 C19.483,22.612 25.982,16.114 34,16.114 Z" id="Shape"></path>
            <path d="M7.945,6.368 L14.612,6.368 C15.559,6.368 16.328,5.598 16.328,4.651 C16.328,3.704 15.559,2.936 14.612,2.936 L7.945,2.936 C6.997,2.936 6.229,3.704 6.229,4.651 C6.229,5.598 6.998,6.368 7.945,6.368 Z" id="Shape"></path>
            <circle id="Oval" cx="34" cy="30.63" r="9.467"></circle>
        </g>
    </g>
</svg>
